<?xml version="1.0" encoding="utf-8"?>
<!-- Generator: Adobe Illustrator 26.0.1, SVG Export Plug-In . SVG Version: 6.00 Build 0)  -->
<svg version="1.1" id="Layer_1" xmlns="http://www.w3.org/2000/svg" xmlns:xlink="http://www.w3.org/1999/xlink" x="0px" y="0px"
	 width="890.80017px" height="208.83083px" viewBox="0 0 890.80017 208.83083"
	 style="enable-background:new 0 0 890.80017 208.83083;" xml:space="preserve">
<style type="text/css">
	.st0{fill:#004D45;}
	.st1{fill:#0A004F;}
	.st2{fill:#9DA5B3;}
	.st3{fill:#0E9E53;}
</style>
<path class="st0" d="M60.85943,86.23721c0,26.18489,10.07814,49.43144,26.65041,65.09494
	c-2.61909,0.2372-5.31477,0.35199-8.09468,0.35199C32.52422,151.68414,0,124.5351,0,87.385s32.52422-64.30679,79.41516-64.30679
	c1.86094,0,3.67592,0.03826,5.42964,0.10713C69.79651,38.933,60.85943,61.3761,60.85943,86.23721z"/>
<path class="st1" d="M264.97189,88.52423c0-37.40991,25.23862-67.83839,66.40695-67.83839
	c14.49826,0,27.02765,3.75842,35.44052,9.66551c1.61026,1.25314,1.96887,2.50578,1.96887,4.65395v11.99249
	c0,1.79006-0.89502,2.86389-2.32748,2.86389c-0.71521,0-1.61023-0.53691-2.32648-1.07383
	c-8.23407-7.87596-20.22604-12.52991-32.75543-12.52991c-30.42899,0-47.07596,21.12159-47.07596,51.55007
	c0,31.50282,19.15222,51.01315,45.8223,51.01315c13.60425,0,24.3436-3.4008,34.3667-11.63437
	c0.89505-0.53691,1.43246-0.89503,2.14868-0.89503c1.25266,0,2.14767,1.07383,2.14767,2.50578v9.48671
	c0,2.14818-0.53741,2.86389-1.96887,3.93773c-10.38171,7.69664-22.01608,11.27676-40.09448,11.27676
	C290.56812,153.49873,264.97189,126.82867,264.97189,88.52423z"/>
<path class="st1" d="M467.34952,107.13953c0,23.08994-13.60324,46.3592-43.13721,46.3592
	c-29.35513,0-43.31702-23.26926-43.31702-46.3592c0-22.91114,13.96188-45.28536,43.31702-45.28536
	C453.74628,61.85417,467.34952,84.22839,467.34952,107.13953z M449.98737,107.49714c0-18.97291-7.69666-33.47168-25.77505-33.47168
	c-18.25821,0-25.77502,14.85689-25.77502,33.47168c0,18.79462,7.69666,34.18792,25.77502,34.18792
	C442.46951,141.68506,449.98737,126.11295,449.98737,107.49714z"/>
<path class="st1" d="M493.33847,64.89687c0.89502,0,1.43243,0.89503,1.61124,1.61126
	c0.53741,3.75842,1.07385,11.09746,1.07385,16.82524c4.83273-12.5294,17.8996-21.47919,34.3667-21.47919
	c15.39331,0,27.7439,9.48671,27.7439,27.9227V149.561c0,0.71573-0.89502,1.61075-1.61127,1.61075h-13.0658
	c-0.89502,0-1.61127-0.89502-1.61127-1.61075V93.53579c0-13.06631-6.80164-18.6153-17.54095-18.6153
	c-13.42444,0-26.13367,9.84483-26.13367,27.20699V149.561c0,0.71573-0.89502,1.61075-1.61023,1.61075h-13.06683
	c-0.89502,0-1.61127-0.89502-1.61127-1.61075V80.82758c0-9.3079-1.25262-13.06683-1.25262-14.31946
	c0-0.71623,0.71622-1.61126,1.43143-1.61126H493.33847z"/>
<path class="st1" d="M592.44727,44.4915c0.53741-1.07383,1.07483-1.43144,2.14868-1.43144c1.4314,0,2.14764,0.71572,2.14764,2.14766
	v5.36967c0,4.47515-0.53741,10.20294-1.25262,14.85638c4.83276-0.3576,14.13965-0.53692,20.76245-0.53692
	c0.71625,0,1.25366,0.53692,1.25366,1.61126v9.3074c0,0.89503-0.35864,1.43195-1.25366,1.43195
	c-6.26422,0-14.49829,0-20.76245-0.53692c0.53638,5.19087,0.53638,10.38174,0.53638,19.86845v28.45962
	c0,11.45557,5.54901,15.03568,13.06683,15.03568c2.32648,0,4.65399-0.35811,6.26422-1.25314
	c1.25366-0.53691,2.14868,0,2.14868,1.07384v10.73985c0,0.89503-0.71625,1.61075-1.61127,1.79005
	c-3.2215,0.71573-6.44403,1.07384-9.12909,1.07384c-14.8559,0-27.02771-8.94978-27.02771-28.10201V96.57899
	c0-9.48671,0.35864-14.85689,0.89508-19.86845c-3.58014,0.53692-8.4129,0.53692-10.91815,0.53692
	c-1.07385,0-1.7901-1.25314-1.7901-3.40081c0-1.96886,0.17883-3.04269,1.25262-3.58012
	C578.30762,64.53875,586.18304,55.58947,592.44727,44.4915z"/>
<path class="st1" d="M668.20898,76.88935c-12.17175,0-18.61475,12.1718-18.61475,25.77503V149.561
	c0,0.71573-0.89508,1.61075-1.61127,1.61075h-13.06683c-0.89502,0-1.61023-0.89502-1.61023-1.61075V80.82758
	c0-9.3079-1.25366-13.06683-1.25366-14.31946c0-0.71623,0.71619-1.61126,1.43243-1.61126h11.27679
	c0.89502,0,1.4314,0.89503,1.61023,1.61126c0.71625,4.65344,1.07385,11.27626,1.07385,17.72027
	c4.29633-13.06683,13.78302-22.37422,26.84985-22.37422c11.27576,0,16.10852,5.72778,16.10852,12.17129
	c0,5.19087-2.68408,8.94979-7.15924,8.94979C677.1593,82.97525,677.69574,76.88935,668.20898,76.88935z"/>
<path class="st1" d="M758.84467,88.52423c0,10.73935-0.89502,27.38579-0.89502,37.23061
	c0,12.5294,2.50629,19.33102,5.19141,21.29988c0.71619,0.71623,0.89502,1.25314,0.89502,2.14818
	c0,1.07384-1.07385,1.96886-1.96887,1.96886h-7.87646c-2.68408,0-3.93774-1.07382-4.83276-3.222
	c-1.96887-3.4008-3.40027-9.1286-3.5791-14.85638c-5.01257,12.5294-15.21448,20.40536-30.42902,20.40536
	c-16.28827,0-26.13361-9.66551-26.13361-22.73233c0-17.89908,17.36316-32.57666,53.69873-34.72483v-5.90659
	c0-9.84431-4.47516-15.93021-18.07837-15.93021c-7.51788,0-12.70923,2.14766-15.93073,6.0859
	c-2.50629,3.04269-4.11652,5.54847-8.05426,5.54847c-3.93872,0-6.98145-2.32697-6.98145-6.80161
	c0-6.0859,8.95032-17.18336,32.21906-17.18336C750.61163,61.85417,758.84467,73.30974,758.84467,88.52423z M705.14697,127.9025
	c0,8.77099,6.80157,13.42443,14.67706,13.42443c13.78302,0,23.09094-11.09746,23.09094-25.05881v-11.45557
	C715.34985,106.78143,705.14697,116.44693,705.14697,127.9025z"/>
<path class="st1" d="M775.00208,146.339c-1.07385-0.89503-1.43146-1.96886-1.43146-3.04269v-8.23407
	c0-1.43195,0.3576-2.32698,1.25262-2.32698c1.07385,0,1.7901,0.35811,2.50531,1.07434
	c5.54895,4.47464,13.96185,7.69664,22.7323,7.69664c11.45563,0,17.54199-5.54898,17.54199-12.52939
	c0-9.30791-8.41284-11.45558-20.76349-15.75192c-11.81317-3.93773-23.0899-10.02312-23.0899-25.95384
	c0-13.42443,11.99194-25.41692,31.86041-25.41692c10.38171,0,18.2572,3.04269,22.55353,6.62281
	c2.32648,1.96886,3.04272,3.57961,3.04272,6.0859c0,4.47465-3.04272,7.51734-6.08539,7.51734
	c-2.14868,0-3.40137-0.35812-5.01257-1.78955c-4.83276-3.93824-9.84436-5.9071-15.39331-5.9071
	c-10.38177,0-15.21448,5.9071-15.21448,12.3506c0,9.12859,7.51782,11.45557,17.00452,14.67757
	c17.36218,5.90659,26.84888,11.63438,26.84888,26.49075c0,15.2145-13.42444,25.59623-33.11407,25.59623
	C788.96393,153.49873,780.55103,150.27673,775.00208,146.339z"/>
<path class="st1" d="M865.74036,44.4915c0.53741-1.07383,1.07483-1.43144,2.14868-1.43144
	c1.43146,0,2.14764,0.71572,2.14764,2.14766v5.36967c0,4.47515-0.53741,10.20294-1.25262,14.85638
	c4.83276-0.3576,14.13965-0.53692,20.76245-0.53692c0.71625,0,1.25366,0.53692,1.25366,1.61126v9.3074
	c0,0.89503-0.35858,1.43195-1.25366,1.43195c-6.26416,0-14.49823,0-20.76245-0.53692
	c0.53644,5.19087,0.53644,10.38174,0.53644,19.86845v28.45962c0,11.45557,5.54895,15.03568,13.06683,15.03568
	c2.32642,0,4.65393-0.35811,6.26416-1.25314c1.25366-0.53691,2.14868,0,2.14868,1.07384v10.73985
	c0,0.89503-0.71619,1.61075-1.61127,1.79005c-3.2215,0.71573-6.44397,1.07384-9.12909,1.07384
	c-14.85583,0-27.02765-8.94978-27.02765-28.10201V96.57899c0-9.48671,0.35858-14.85689,0.89502-19.86845
	c-3.58014,0.53692-8.4129,0.53692-10.91815,0.53692c-1.07385,0-1.79004-1.25314-1.79004-3.40081
	c0-1.96886,0.17877-3.04269,1.25262-3.58012C851.60071,64.53875,859.47614,55.58947,865.74036,44.4915z"/>
<g>
	<path class="st2" d="M288.98941,199.02985c0-4.2594-3.28418-5.33678-8.77515-7.59465
		c-4.87518-1.89891-9.18472-4.61885-9.18472-10.46832c0-5.23463,4.20737-10.26305,12.05838-10.26305
		c3.59253,0,6.51727,0.82104,9.03149,2.51421c0.46158,0.35945,0.51361,0.66685,0.51361,1.28264v3.48944
		c0,0.46208-0.25632,0.7189-0.61578,0.7189c-0.25729,0-0.46158-0.10312-0.66782-0.30838
		c-2.46313-2.41158-5.33679-3.54051-8.62097-3.54051c-4.20737,0-6.5163,2.56577-6.5163,5.64468
		c0,3.95151,3.64267,5.33678,7.74786,6.97887c6.82565,2.56577,10.21198,5.43942,10.21198,10.98148
		c0,6.51727-5.33676,10.36568-12.41779,10.36568c-4.97736,0-7.49252-0.97475-10.67358-3.23262
		c-0.30838-0.30838-0.51364-0.61578-0.51364-1.1805v-2.82257c0-0.51268,0.20526-0.82104,0.51364-0.82104
		c0.25635,0,0.46161,0.15417,0.66687,0.35944c2.97675,2.41206,6.20889,3.6947,9.80145,3.6947
		C286.16684,204.82823,288.98941,202.41617,288.98941,199.02985z"/>
	<path class="st2" d="M331.66153,204.05826c0.20526,0,0.35947,0.15419,0.35947,0.46208l-0.41052,3.18155
		c-0.05109,0.25633-0.10312,0.41052-0.35947,0.41052h-22.32236c-0.25635,0-0.46161-0.25633-0.46161-0.46159v-35.25383
		c0-0.25633,0.20526-0.51315,0.46161-0.51315h21.5524c0.25729,0,0.35944,0.15372,0.41052,0.46208l0.35944,3.18106
		c0,0.25682-0.10214,0.41052-0.35944,0.41052c-3.07892,0-8.21045-0.10214-11.18625-0.10214
		c-2.6684,0-4.46466-0.05156-6.20889-0.15419c0.10214,2.00154,0.15323,4.05415,0.15323,5.79839
		c0,1.89891-0.05109,3.89996-0.15323,5.90149c1.59003-0.15419,3.38632-0.20526,5.9516-0.20526
		c2.61731,0,4.51575-0.05107,5.74731-0.05107c0.20621,0,0.35944,0.1537,0.35944,0.46159v3.07892
		c0,0.25633-0.10214,0.41052-0.35944,0.41052c-1.28265,0-3.23215-0.05107-5.84946-0.05107
		c-2.20682,0-4.15631-0.10312-5.84946-0.25682c0.10214,2.25787,0.15323,4.41312,0.15323,6.5168
		c0,2.30942-0.05109,4.72101-0.15323,7.03043c2.41107-0.1537,4.41263-0.1537,8.21042-0.1537
		C324.99103,204.16138,328.58261,204.05826,331.66153,204.05826z"/>
	<path class="st2" d="M341.33771,190.15207c0-10.72513,7.23523-19.44824,19.03723-19.44824
		c4.15729,0,7.74887,1.07738,10.16092,2.77054c0.46161,0.35945,0.5647,0.7189,0.5647,1.33469v3.43788
		c0,0.51315-0.25632,0.82104-0.66684,0.82104c-0.20624,0-0.46255-0.1537-0.66782-0.30789
		c-2.36005-2.25787-5.7984-3.59207-9.39096-3.59207c-8.72308,0-13.49518,6.05521-13.49518,14.77879
		c0,9.03148,5.49097,14.62509,13.13672,14.62509c3.89996,0,6.97885-0.97523,9.85251-3.33574
		c0.25635-0.1537,0.41052-0.25681,0.61578-0.25681c0.35947,0,0.61578,0.30836,0.61578,0.71889v2.71947
		c0,0.61578-0.15417,0.82104-0.5647,1.12894c-2.9758,2.20631-6.31201,3.23262-11.49463,3.23262
		C348.67603,208.77927,341.33771,201.13353,341.33771,190.15207z"/>
	<path class="st2" d="M388.80215,171.88383c0.20526,0,0.46161,0.25682,0.46161,0.51315v22.68135
		c0,5.79886,3.64362,9.13411,9.85251,9.13411c6.31204,0,9.95566-2.92473,9.95566-8.87729v-22.93817
		c0-0.25633,0.20526-0.51315,0.46158-0.51315h4.15631c0.20526,0,0.46161,0.25682,0.46161,0.51315v23.60503
		c0,7.79991-6.05472,12.77725-15.03516,12.77725c-8.97943,0-15.08618-5.02841-15.08618-12.93144v-23.45084
		c0-0.25633,0.20526-0.51315,0.46158-0.51315H388.80215z"/>
	<path class="st2" d="M434.93192,193.12836c0.15421,2.2068,0.20526,4.51575,0.20526,6.9278v7.59467
		c0,0.20526-0.25632,0.46159-0.46158,0.46159h-4.25943c-0.25632,0-0.46158-0.25633-0.46158-0.46159v-35.09964
		c0-0.35945,0.25632-0.66734,0.46158-0.66734h10.46832c8.41571,0,12.16245,4.51575,12.16245,10.10934
		c0,5.59312-5.02939,9.59572-10.31509,10.00624c2.61731,0.56422,6.41415,4.25893,10.10886,8.46725
		c2.87366,3.18106,4.92627,5.54205,6.00461,6.10628c0.25635,0.10263,0.3074,0.35896,0.3074,0.71841
		c0,0.51315-0.25632,0.82104-0.66684,0.82104h-4.72101c-0.66687,0-1.18048-0.30789-2.30893-1.84735
		c-4.56683-5.28571-9.95566-13.03407-13.59833-13.03407C437.29291,193.23099,435.85608,193.17943,434.93192,193.12836z
		 M434.98395,175.6301c0.10217,1.89842,0.15323,5.7473,0.15323,7.79991c0,2.10368-0.05106,4.20737-0.15323,6.25998
		c0.92322-0.05107,2.36005-0.1537,3.79688-0.1537c6.10675,0,8.8262-2.8221,8.8262-7.38939c0-3.89996-2.36002-6.3631-7.33832-6.3631
		C438.42136,175.7838,436.72821,175.73224,434.98395,175.6301z"/>
	<path class="st2" d="M476.32623,207.65082c0,0.20526-0.25635,0.46159-0.46161,0.46159h-4.2594
		c-0.25635,0-0.46161-0.25633-0.46161-0.46159v-35.25383c0-0.25633,0.20526-0.51315,0.46161-0.51315h4.2594
		c0.20526,0,0.46161,0.25682,0.46161,0.51315V207.65082z"/>
	<path class="st2" d="M520.02563,172.29436v3.48944c0,0.20526-0.10217,0.35896-0.35944,0.35896
		c-1.89844,0-4.15631-0.10214-6.05475-0.10214c-2.25787,0-4.61884-0.05156-6.87671-0.15419
		c0.10312,1.89842,0.15417,3.79733,0.15417,5.69623v26.06816c0,0.20526-0.25632,0.46159-0.46158,0.46159h-4.25943
		c-0.25632,0-0.46158-0.25633-0.46158-0.46159v-26.17126c0-1.89842,0.05106-3.79684,0.15417-5.59312
		c-2.05261,0.10263-4.15726,0.15419-6.20987,0.15419c-2.36002,0-4.46368,0.10214-6.82468,0.10214
		c-0.25635,0-0.41052-0.1537-0.35947-0.41052l0.46161-3.38632c0.05203-0.30836,0.15417-0.46208,0.35944-0.46208h30.37866
		C519.92346,171.88383,520.02563,172.03755,520.02563,172.29436z"/>
	<path class="st2" d="M547.32343,207.65082c0,0.20526-0.25732,0.46159-0.46161,0.46159h-4.2594
		c-0.25635,0-0.46259-0.25633-0.46259-0.46159v-15.34351l-14.67566-19.60243c-0.30743-0.41052-0.30743-0.82104,0.25635-0.82104
		h4.77301c0.46161,0,0.71796,0.25682,0.87213,0.56422l8.41571,11.13567c1.1795,1.69363,2.25787,3.33572,3.07892,5.18307
		c1.02631-1.95045,2.05261-3.59254,3.18103-5.13153l8.4668-11.18721c0.30835-0.46159,0.66785-0.56422,1.07837-0.56422h4.31049
		c0.5647,0,0.5647,0.41052,0.25629,0.82104l-14.82983,19.60243V207.65082z"/>
</g>
<path class="st3" d="M199.43523,35.53555c2.21541,14.2785-8.77763,26.03185-27.44823,26.03185
	c-28.05937,0-33.04024-36.10944-87.1422-38.38206C98.5269,8.80737,117.28917,0,138.9926,0c0.4278,0,0.84796,0,1.27577,0.00765
	C171.4828,0.00765,197.00591,19.94857,199.43523,35.53555z"/>
<path class="st1" d="M183.20439,113.92188c7.23546,1.40795,16.51288,6.3511,16.51288,21.37948
	c0,20.86681-32.49408,36.43848-59.50955,36.69864c0,0-0.06934,0-0.13098,0c-0.04623,0-0.06935,0-0.09247,0s-0.03082,0-0.03082,0
	c-20.57368-0.03061-38.72012-7.78201-52.4436-20.66785C135.1221,147.29958,157.4218,108.87926,183.20439,113.92188z"/>
</svg>
