<svg width="416" height="126" viewBox="0 0 416 126" fill="none" xmlns="http://www.w3.org/2000/svg">
<rect width="416" height="126" fill="white"/>
<path d="M362.142 90.5041C358.028 90.5041 354.732 89.521 352.252 87.5549C349.773 85.5888 348.533 82.0964 348.533 77.0775V60.3139H341.808V52.0096H348.533L349.72 41.6875H358.661V52.0096H369.263V60.3139H358.661V77.1552C358.661 79.0178 359.056 80.3113 359.847 81.0357C360.692 81.7083 362.116 82.0446 364.12 82.0446H369.026V90.5041H362.142Z" fill="#1E1E1E"/>
<path d="M311.37 90.5039V52.0095H320.389L321.339 59.2271C322.763 56.7437 324.689 54.7776 327.115 53.3288C329.593 51.8284 332.495 51.0781 335.818 51.0781V61.5555H332.969C330.754 61.5555 328.776 61.8918 327.035 62.5644C325.295 63.237 323.924 64.4012 322.921 66.0569C321.972 67.7125 321.497 70.0149 321.497 72.9641V90.5039H311.37Z" fill="#1E1E1E"/>
<path d="M279.916 91.4353C276.54 91.4353 273.77 90.9179 271.608 89.883C269.446 88.7965 267.837 87.3737 266.782 85.6146C265.727 83.8554 265.199 81.9151 265.199 79.7938C265.199 76.2237 266.623 73.3263 269.472 71.1015C272.32 68.8766 276.593 67.7643 282.289 67.7643H292.258V66.8329C292.258 64.1942 291.494 62.2539 289.964 61.0122C288.434 59.7704 286.536 59.1496 284.267 59.1496C282.21 59.1496 280.417 59.6411 278.887 60.6242C277.357 61.5554 276.408 62.9525 276.039 64.8151H266.149C266.412 62.0212 267.362 59.5893 268.997 57.5197C270.685 55.4502 272.848 53.8721 275.485 52.7855C278.122 51.6473 281.076 51.0781 284.347 51.0781C289.938 51.0781 294.342 52.4493 297.56 55.1915C300.777 57.9337 302.386 61.8141 302.386 66.8329V90.5039H293.762L292.812 84.2952C291.652 86.3648 290.017 88.0722 287.907 89.4174C285.85 90.7626 283.186 91.4353 279.916 91.4353ZM282.211 83.6743C285.111 83.6743 287.354 82.743 288.936 80.8804C290.571 79.0177 291.599 76.7153 292.021 73.973H283.397C280.707 73.973 278.782 74.4646 277.622 75.4477C276.461 76.3789 275.881 77.5431 275.881 78.9401C275.881 80.4406 276.461 81.6047 277.622 82.4325C278.782 83.2603 280.311 83.6743 282.211 83.6743Z" fill="#1E1E1E"/>
<path d="M217.366 107V52.0078H226.364L227.469 57.5864C228.732 55.8578 230.39 54.3388 232.442 53.0292C234.547 51.7197 237.257 51.0649 240.572 51.0649C244.256 51.0649 247.545 51.9554 250.439 53.7364C253.333 55.5173 255.623 57.953 257.307 61.0435C258.99 64.134 259.832 67.6435 259.832 71.5721C259.832 75.5007 258.99 79.0102 257.307 82.1007C255.623 85.1388 253.333 87.5483 250.439 89.3292C247.545 91.0578 244.256 91.9221 240.572 91.9221C237.625 91.9221 235.047 91.3721 232.837 90.2721C230.627 89.1721 228.837 87.6268 227.469 85.6364V107H217.366ZM238.441 83.1221C241.651 83.1221 244.309 82.0483 246.414 79.9007C248.518 77.753 249.571 74.9768 249.571 71.5721C249.571 68.1673 248.518 65.3649 246.414 63.1649C244.309 60.9649 241.651 59.8649 238.441 59.8649C235.179 59.8649 232.495 60.9649 230.39 63.1649C228.338 65.3126 227.311 68.0888 227.311 71.4935C227.311 74.8983 228.338 77.7007 230.39 79.9007C232.495 82.0483 235.179 83.1221 238.441 83.1221Z" fill="#1E1E1E"/>
<path d="M143.268 90.5039V52.0095H152.208L153.079 57.2094C154.345 55.3467 156.007 53.8721 158.064 52.7855C160.174 51.6473 162.6 51.0781 165.343 51.0781C171.408 51.0781 175.708 53.3806 178.239 57.9854C179.664 55.8641 181.562 54.1826 183.936 52.9408C186.362 51.699 189 51.0781 191.848 51.0781C196.965 51.0781 200.894 52.5786 203.637 55.5795C206.38 58.5804 207.752 62.9783 207.752 68.7732V90.5039H197.624V69.7045C197.624 66.3932 196.965 63.8579 195.646 62.0988C194.38 60.3396 192.402 59.46 189.712 59.46C186.969 59.46 184.753 60.4431 183.066 62.4092C181.431 64.3753 180.613 67.1176 180.613 70.6358V90.5039H170.485V69.7045C170.485 66.3932 169.826 63.8579 168.507 62.0988C167.189 60.3396 165.158 59.46 162.415 59.46C159.725 59.46 157.536 60.4431 155.848 62.4092C154.213 64.3753 153.395 67.1176 153.395 70.6358V90.5039H143.268Z" fill="#1E1E1E"/>
<path d="M123.041 90.5042V57.05C123.041 54.2664 125.308 52.0098 128.105 52.0098C130.901 52.0098 133.168 54.2664 133.168 57.05V90.5042H123.041Z" fill="#1E1E1E"/>
<ellipse cx="127.881" cy="41" rx="5.52542" ry="5.5" fill="#1E1E1E"/>
<path d="M94.7289 35.5005L94.7289 41.0005C94.7289 44.0381 92.2551 46.5005 89.2035 46.5005C86.1519 46.5005 83.678 44.0381 83.678 41.0005L83.678 35.5005L94.7289 35.5005Z" fill="#3769FF"/>
<path d="M83.678 90.5005L83.678 60.2505C83.678 57.2129 86.1519 54.7505 89.2035 54.7505C92.2551 54.7505 94.7289 57.2129 94.7289 60.2505L94.7289 90.5005L83.678 90.5005Z" fill="#3769FF"/>
<path d="M56.0509 35.5005L56.0509 65.7505C56.0509 68.7881 53.5771 71.2505 50.5255 71.2505C47.4739 71.2505 45.0001 68.7881 45.0001 65.7505L45.0001 35.5005L56.0509 35.5005Z" fill="#3769FF"/>
<path d="M45.0001 90.5005L45.0001 85.0005C45.0001 81.9629 47.4739 79.5005 50.5255 79.5005C53.5772 79.5005 56.051 81.9629 56.051 85.0005L56.051 90.5005L45.0001 90.5005Z" fill="#3769FF"/>
<path d="M75.3899 35.5005L75.3899 53.3748C75.3899 56.4124 72.9161 58.8748 69.8645 58.8748C66.8129 58.8748 64.3391 56.4124 64.3391 53.3748L64.3391 35.5005L75.3899 35.5005Z" fill="#3769FF"/>
<path d="M64.3391 90.5007L64.3391 72.625C64.3391 69.5874 66.8129 67.125 69.8645 67.125C72.9161 67.125 75.39 69.5874 75.39 72.625L75.39 90.5007L64.3391 90.5007Z" fill="#3769FF"/>
</svg>
